<?xml version="1.0" encoding="UTF-8"?>
<svg id="Layer_2" data-name="Layer 2" xmlns="http://www.w3.org/2000/svg" viewBox="0 0 616.76 783.94">
  <defs>
    <style>
      .cls-1 {
        fill: #161717;
      }
    </style>
  </defs>
  <g id="Layer_1-2" data-name="Layer 1">
    <path class="cls-1" d="M112.94,772.46c13-21.45,24.39-40.66,36.33-59.53,1.91-3.02,6.04-5.46,9.62-6.46,37.41-10.44,74.91-20.53,113.45-31.01,2.53-12.64,2.28-12.92-11.44-18.85-17.73-7.66-32.55-19.19-43-35.45-4.32-6.72-9.13-7.5-16.02-6.12-13.06,2.61-26.2,4.8-39.34,6.95-2.24,.37-4.65-.36-8.42-.73l15.71-45.08c-13.79,0-58,.06-65.91,.04-6.48-.02-9.09-2.31-5.89-9.02,9.23-19.35,18.22-38.83,27.85-59.42l-71.79-41.32c17.67-26.4,49.67-36.74,69.21-62.97-25.84-11.84-105.36-47.8-119.95-54.51-1.56-.72-3.07-2.85-3.34-4.53-.15-.92,2.15-2.66,3.66-3.38,23.3-11,46.58-22.04,70.03-32.73,12.13-5.53,24.58-10.37,39.17-16.47L14.71,160.87l.86-2.39c52.87,17.88,111.27,12.9,163.01,44.37-.7-14.39-.74-25.82-1.9-37.13-3.14-30.79-7.66-61.46-9.86-92.31-1.54-21.5,2.11-42.82,10.97-65.08,5.23,6.97,8.83,13.33,13.88,18.18,14.46,13.89,29.04,27.74,44.44,40.56,20.02,16.66,37.95,35.01,52.35,56.76,3.15,4.76,6.53,9.38,10.26,14.71,7.85-9.65,15.49-18.6,22.65-27.92,23.34-30.38,52.55-53.59,85.43-73.01,18.35-10.83,35.09-24.41,53.76-37.61,7.15,62.55-14.41,122.96-16.67,186.74,7.98,0,15.89,1.02,23.44-.18,30.3-4.79,60.47-10.41,90.75-15.41,11.68-1.93,23.48-3.29,35.27-4.35,4.31-.39,8.77,.85,15.63,1.62-3.47,3.88-5.03,6.29-7.17,7.9-20.91,15.77-38.29,34.53-50.46,57.95-13.78,26.5-31.4,49.84-57.68,67.32,13.05,8.73,26.44,14.85,40.97,19.1,24.74,7.24,49.29,15.15,73.87,22.93,2.6,.82,4.86,2.69,8.25,4.62-19.75,20.27-42.04,33.56-66.76,43.54-18.35,7.4-36.19,16.06-55.18,24.58l72.75,62.04-69.13,38.07,40.81,74.47-2.2,2.42-68.08-13.14c1.53,15.19,2.88,29.22,4.4,43.24,.76,7.06-2.09,9.01-8.48,6.49-1.41-.56-2.74-1.35-4.17-1.86-16.94-6.06-32.25-12.87-47.08,7.47-8.69,11.92-25.14,18.18-39.41,27.87l.92,12.18c36.58,9.78,72.27,19.45,108.05,28.78,9.13,2.38,16.09,7.25,20.67,15.23,8.62,15.01,16.82,30.25,25.32,45.32,3.31,5.86,1.5,8.14-4.87,8.68-18.16,1.53-36.27,4.11-54.46,4.88-55.01,2.32-110.07,5.97-165.08,5.36-58.93-.65-117.82-5.53-176.72-8.67-3.82-.2-7.59-1.34-15.12-2.74ZM480.15,510.33c2.08-2.47,5.05-4.49,6.3-7.3,8.25-18.49,7.36-36.86-3.45-53.91-4.47-7.05-11.36-12.56-17.15-18.77-3.51,11.02-4.54,19.69,2.98,27.85,4.06,4.41,6.59,11.14,7.67,17.2,2.04,11.51,2.54,23.29,3.68,34.96l-1.21,.3,.28,.78c.3-.37,.59-.76,.9-1.12Zm-306.05,37.47l2.21,.04-.96-1.34c-5.28-15.52-5.98-31.21-3.82-47.52,1.5-11.31,.29-22.99,.29-36.25-11.93,6.86-16.26,16.19-19.17,26.55-6.44,22.91,3.21,49.29,21.45,58.52Zm37.37,46.65l-1.07-.99-.09,.83,1.29-.05c.12,1.89-.25,4,.44,5.65,8.52,20.21,22.08,36.21,41.24,46.94,29.9,16.73,62.42,19.39,95.41,14.55,41.74-6.13,71.53-29.18,88.88-67.89l.56-2.83-2.67,1.05-6.8,4.35-2.09-2.33c1.7-2.07,3.47-4.08,5.1-6.2,9.43-12.23,20.41-23.6,27.89-36.93,14.07-25.08,20.96-52,9.76-80.45-8.07-20.51-23.9-29.49-45.46-26.69-2.24,.29-4.56,.04-6.84,.04l.07-3.11c13.69-5.11,26.95-1.87,40.62,4.38,.73-53.85,1.23-106.75-5.76-159.37-4.56-34.35-20.32-62.48-49.38-81.74-49.44-32.78-101.78-32.33-153.6-7.72-52.99,25.17-76.09,71.14-77.04,127.9-.72,42.85,2.06,85.76,3.55,128.64,.29,8.23,1.79,16.42,2.83,25.53,20.1-22.32,53.88-30.82,61.68-15.03-2.95-.57-5.15-.96-7.33-1.41-21.16-4.4-41.42,3.9-49.86,21.35-7.05,14.55-9.34,30.07-6.51,46.2,4.28,24.45,19.75,41.84,36.53,58.48,2.1,2.09,3.68,4.71,5.73,7.39-1.94,.8-2.56,1.32-2.98,1.19-1.4-.44-2.73-1.12-4.08-1.71ZM27.75,167.31l-2.41,.03,.93,1.82c1.55,2.23,3.04,4.51,4.67,6.69,27.46,36.76,55.02,73.44,82.34,110.29,6.15,8.29,5.34,8.73-3.6,12.65-33.97,14.88-67.77,30.13-104.14,46.36l125.38,55.98c-18.26,29.14-50.9,38.88-68.97,63.81,21.43,12.63,42.32,25.04,63.33,37.26,5.76,3.35,6.88,5.89,3.2,12.76-9.65,18.02-17.59,36.95-26.34,55.8h76.25l-17.77,44.95,2.48,2.58,45.43-9.23c-1.73-21.15-16.12-34.69-26.65-50.36-.95-1.41-2.56-2.8-4.15-3.31-20.03-6.45-28.49-22.34-31.31-41.14-3.27-21.86,.99-41.81,21.18-55.37,1.92-1.29,2.85-5.53,2.63-8.28-3.72-47.08-7.02-94.16-2.79-141.38,3.11-34.76,15.62-65.71,40.34-90.56,34.9-35.09,78.69-47.54,126.81-44.28,41.68,2.83,76.49,20.61,101.67,54.95,18.31,24.97,22.22,54.34,23.78,83.93,1.85,34.95,2.36,69.98,3.13,104.98,.11,4.86,1.69,7.03,5.75,9.77,6.4,4.32,12.61,9.71,17.09,15.95,15.55,21.64,14.37,54.04-1.04,70.47-4.74,5.05-8.11,11.55-11.39,17.76-5.78,10.97-11,22.24-16.45,33.39l-24.19,49.45,36.4,10.32-7.13-51.07,66.39,12.26,2.01,.16c-.25-.59-31.91-59.65-38.19-71.51l66.29-38.27-69.93-58.81c1.87-1.52,3.49-3.4,5.53-4.43,17.83-8.9,35.43-18.34,53.69-26.25,22.09-9.57,43.18-20.29,60.62-38.16-1.43-.81-2.09-1.34-2.83-1.57-23.7-7.36-47.64-14.03-71.04-22.27-15.04-5.29-29.34-12.75-43.85-19.52-4.26-1.98-6.3-4.83-.64-8.24,23.38-14.06,39.8-34.69,52.35-58.27,9.24-17.37,20.12-33.27,33.84-47.24,6.5-6.62,13.47-12.77,21.97-20.79-8.98,.68-16.14,.67-23.1,1.83-36.53,6.09-72.96,12.75-109.54,18.53-7.3,1.15-15.14-.28-22.59-1.43-1.74-.27-4.25-4.31-4.13-6.49,.78-13.35,1.58-26.76,3.57-39.96,5.93-39.36,14.04-78.43,14.57-118.45,.07-5.29,0-10.59,0-16.62-13.04,9.33-24.63,17.93-36.53,26.06-18.3,12.49-38.58,22.71-54.79,37.45-20.78,18.89-38.35,41.3-57.3,62.2-3.36,3.71-6.69,7.44-10.57,11.76-2.13-2.9-3.43-4.49-4.53-6.21-14.27-22.42-30.37-43.29-50.66-60.7-14.75-12.66-29.51-25.31-43.89-38.39-7-6.37-13.12-13.72-19.92-20.92-9.71,27.19-7.79,54.42-5.02,81.76,3.12,30.8,6.33,61.6,8.67,92.46,1,13.22-2.5,14.88-14.76,9.04-7.65-3.64-14.8-9.19-22.82-11.01-39-8.85-78.23-16.74-117.37-24.96Zm247.37,522.09c-9.53,28.63-13.03,57.52-13.08,87.88h123.16c1.97-26.39-5.36-72.15-13.56-87.05-31.85,13.75-63.64,16.09-96.52-.83Zm-58.06,86.75h39.64c1.12-31.03,4.3-61.96,15.52-92.72-4.78,.65-8.69,.82-12.41,1.75-24.7,6.14-49.09,14-74.09,18.25-26.41,4.48-41.69,19.72-51.68,42.85-3.28,7.58-7.45,14.78-11.96,23.62l89.83,5.9c11.71-27.74,20.55-55.19,35.15-79.93l3.32,1.44-33.32,78.85Zm213.01-1.32l-32.62-77.39,3.01-1.48c2.3,3.95,5.05,7.71,6.84,11.89,8.61,20.03,17.05,40.14,25.35,60.3,1.57,3.83,2.44,6.98,7.94,6.53,18.47-1.51,37-2.33,55.48-3.7,9.22-.68,18.41-1.96,29.48-3.18-9.32-16.18-17.11-31.26-26.52-45.25-3.71-5.52-10.44-10.53-16.81-12.47-26.35-8.03-53.04-14.98-79.71-21.93-8.52-2.22-17.36-3.2-23.88-4.37l14.65,93.22,36.79-2.17Zm-151.96-111.68c-1.65,21.23,.33,24.65,16.9,29.18,20.78,5.68,41.48,4.86,61.85-1.85,14.61-4.82,17.49-12.7,10.92-27.64-29.69,7.57-59.45,6.81-89.67,.31Zm250.49-76.64c.67,.05,1.34,.11,2.01,.16l-.76-1.76-1.26,1.6Zm-222.41,48.19c-16.33,.95-19.11-1.66-21.75-16.92-.48-2.79-4.26-6.02-7.25-7.21-26.07-10.4-49.55-24.54-67.89-46.16-13.24-15.6-21.34-33.07-18.36-54.33,3.87-27.63,26.26-42.11,52.35-32.08,33.51,12.89,67.15,16.59,101.35,4.51,12.49-4.41,24.26-10.98,36.09-17.1,13.95-7.22,28.38-10.93,43.92-7.14,23.36,5.7,37.32,25.93,32.84,50.3-9.33,50.76-38.1,85.67-87.67,102.08-6.87,2.27-12.41,3.1-12.5,12.76-.07,8.32-8.48,13.36-18.01,12.63-5.07-.39-8.07,.78-9.39,5.98-1.63,6.39-5.32,11.52-12.55,10.75s-9.48-6.65-10.06-13.23c-.13-1.47-.66-2.9-1.12-4.86Zm-74.53-142.94c6.77,.74,14.32,3.72,17.9-6.47l-18.68-5.75-.73,10.57c-.89-.2-2.07-.1-2.61-.64-9.47-9.35-15.54-7.83-23.73,3.57-11.6,16.17-9.15,32.21-2.18,48.89,9.79,23.44,30.18,36.37,49.71,50.06,1.83,1.28,5.91,1.08,8.03-.08,12.2-6.72,14.7-6.5,23.67,3.66,11.78-2.64,12.13-2.52,23.02,9.24,2.22-5.15,6.05-9.79,5.32-13.54-.68-3.54-6.31-6.01-9.51-9.2-3.41-3.41-9.77-8.05-9.07-10.5,1.32-4.61,6.11-10.14,10.64-11.6,22.28-7.16,44.17,3.77,53.39,25.48,3.02,7.12,12.03,11.34,16.33,6.77,8.31-8.85,15.95-8.41,23.89-.14,29.78-21.09,49.88-48.43,54.89-84.06,3.03-21.53-8.19-42.33-33.94-45.13-6.41-.69-10.99-.13-11.26,8.63-.29,9.27-5.69,12.17-15.04,10.98-2.82-.36-7.62,.21-8.53,1.94-5.79,10.95-13.79,13.63-24.43,7.88-8.49,13.73-9.92,14.11-25.12,10.12-1.92-.5-4.72,2.08-7.02,3.39-3.62,2.07-7.19,6.01-10.74,5.96-4.22-.06-8.4-3.5-12.88-5.6-10.47,8-12.72,8.04-24.92,.32-1.21-.76-3.13-1.78-4.09-1.33-15.08,7.09-24.15-12.32-38.49-8.79-.84,.21-2.53-3.01-3.82-4.63Zm118.12,110.89c1.39-4,3.79-7.32,3.35-10.21-2.78-18.14-26.34-33.24-44.37-28.42-3.63,.97-6.63,4.3-9.92,6.54,2.81,2.74,5.59,5.51,8.44,8.2,3.29,3.1,9.63,6.36,9.42,9.16-.67,8.82,5.24,12.05,10.46,16.85,6.33-7.26,13.44-9.16,22.61-2.12Zm-59.58,14.15c-.79,9.78,2.85,15.52,10.26,13.41,8.88-2.54,10.38,1.92,11.83,8.84,.68,3.24,3.81,5.96,5.83,8.92,2.49-2.63,6.2-4.85,7.23-7.96,2.34-7.06,6.45-9.44,13.62-8.97,10.79,.71,14.44-3.61,14.02-14.24h-62.79Zm93.02-146.95l-.38,4.11c5.19,.89,10.83,3.39,15.38,2.08,2.71-.78,3.7-7.55,5.46-11.63l-2.33-1.78-18.12,7.22Zm-52.28,22.29c4.4,5.67,9.21,10.37,15.4,7.09,3.48-1.85,4.85-7.66,7.17-11.69l-2.4-1.3-20.17,5.91Zm-23.41,2.43l-1.99,2.64,10.63,10.43,10.1-11.68-1.96-2.34-16.77,.96Zm72.06-18.65l-3.22-1.95-17.15,8.98-.05,3.15c4.23,1.16,10.04,4.58,12.33,2.98,3.87-2.71,5.51-8.61,8.08-13.16Zm-102.03,17.71l-21.72-5.64-2.19,2.23c3.11,3.64,5.55,8.68,9.5,10.6,5.94,2.89,10.55-1.09,14.4-7.2Zm5.33,.34l-2.51,3.28c3.12,3.21,5.87,8.54,9.43,9.16,6.14,1.06,10.35-3.28,11.03-10.19l-17.95-2.26Zm20.17,115.74l.96,2.78,20.97,2.01c-3.12-5.37-5.53-11.24-6.55-11.01-5.32,1.22-10.29,3.99-15.38,6.21Zm-4.59,2.22c-1.72-5.63-2.95-12.49-3.96-12.46-4.85,.15-9.63,2.17-14.44,3.52l.24,2.94,18.16,6Zm71.53-6.46l.51-3.8c-2.91-1.19-6.44-4.03-8.6-3.22-4.15,1.56-7.52,5.19-11.21,7.97l1.73,3.05,17.57-3.99Zm-22.24,5.17c-3.59-3.94-6.8-8.57-7.63-8.17-4.15,1.97-7.68,5.25-11.43,8.07l1.61,2.46,17.45-2.35Zm43.83-14.27l.24-2.95c-3.18-.81-7.44-3.29-9.29-2.08-3.33,2.18-5.22,6.57-7.71,10.03l2.09,1.64,14.67-6.65Zm-129.51-1.2l.45,3.33,13.65,6.04-1.92-11.66-12.18,2.28Zm57.28-386.63c28.78,1.59,55.9,8.94,81.85,20.75,5.71,2.6,11.34,6.02,15.96,10.22,6.26,5.69,7.34,13.36,3.07,20.78-4.48,7.79-11.74,8.63-19.88,6.48-20.79-5.49-41.45-11.65-62.48-16.01-29.04-6.02-57.37-2.6-84.43,10.03-8.24,3.85-16.42,7.93-24.95,10.98-9.03,3.23-18.51-.45-22.23-7.52-4.1-7.8-2.51-16.37,5.27-22.82,20.24-16.79,44.49-24.52,69.8-29.03,12.51-2.23,25.34-2.63,38.02-3.86Zm-7.9,5.76c-31.79,1.34-64.63,8.45-93.58,28.58-7.86,5.46-10.64,12.66-7.08,18.49,4.83,7.9,12.29,6.91,19.38,4.29,6.8-2.51,13.26-5.99,19.83-9.13,26.54-12.68,54.54-17.01,83.28-11.63,23.16,4.34,45.91,10.92,68.76,16.84,5.65,1.46,10.19,1.2,13.52-3.94,3.58-5.53,2-10.74-2.24-14.84-2.98-2.88-6.78-5.11-10.54-6.96-27.9-13.75-57.43-20.96-91.34-21.7Zm66.86,200.05c-7.2-1.07-14.52-1.58-21.56-3.3-24.59-6-37.98-23.33-38.96-52.54-.38-11.34,1.18-23.24,4.46-34.1,8.64-28.6,33.48-44.41,64.47-42.74,27.92,1.5,52.04,23.15,58.8,52.76,9.58,42-22.34,79.71-67.21,79.92Zm-.31-5.65c43.47-.01,72.91-36.13,61.47-76.59-6.62-23.41-21.9-39.58-46.11-44.1-22.99-4.29-43.82,1.95-58.14,21.66-13.55,18.65-14.44,40.19-10.35,61.98,3.48,18.51,15,30.08,33.35,34.31,6.46,1.49,13.18,1.85,19.79,2.73Zm-86.03-24.62c-1.19,.9-2.66,1.59-3.51,2.74-16.82,22.67-46.87,33.12-73.78,24.12-7.95-2.66-16.03-7.96-21.58-14.24-18.77-21.28-19.17-66.24-1.9-88.8,27.1-35.41,85.67-32.27,103.57,6.12,9.17,19.67,6.65,40.28-.11,60.42-1.08,3.2-1.87,6.5-2.8,9.76l.12-.12Zm-58.47,24.44c5.12-.55,10.37-.57,15.34-1.74,30.08-7.05,46.23-29.89,46.41-65.19,.18-36.82-31.11-60.86-66.53-51.11-34.67,9.54-50.51,36.45-43.38,73.65,6.02,31.42,19.88,44.1,48.16,44.39Zm58.47-24.44c-3.44,14.7-8.08,29.26-9.95,44.16-1.48,11.82-1.51,24.54,1.32,36,3.77,15.27,22.02,19.59,31.4,8.3,10.6-12.75,14.24-28.38,14.79-44.74,0-.26-.96-.56-2.68-1.49-.9,2.88-1.7,5.51-2.55,8.11-3.29,10.06-5.68,20.57-10.33,29.95-2.09,4.22-9.4,9.25-13.15,8.43-5.07-1.11-11.18-6.73-12.89-11.77-2.54-7.45-3.04-16.3-1.86-24.17,2.24-14.96,6.17-29.68,9.66-44.43,.97-4.12,2.36-7.8-3.88-8.24l.12-.12Zm-65.33,51.35c18.9,.91,36.71-5.41,39.97-15.02-27.26,13.53-53.26,17.18-77.81-9.74,3.35,14.55,19.39,23.88,37.84,24.76Zm183.62-6.18c13.04-4.49,18.71-9.38,19.39-17.94-22.87,22.06-50.1,19.37-78.67,14.68,8.74,9.31,38.76,10.33,59.28,3.26Zm-16.69-74.58c-3.38-8.68-6.19-9.67-19.29-6.67l-2.12,9.98,11.17,7.59q11.9-6.64,10.24-10.9Zm-152.11-10.14c-4.13,1.16-9.8,6.39-10.01,10.06-.52,8.84,3.71,9.98,19.7,7.04-1.19-16.43-2.41-19.15-9.69-17.11Z"/>
  </g>
</svg>